<?xml version="1.0" encoding="UTF-8" standalone="no"?>
<!DOCTYPE svg PUBLIC "-//W3C//DTD SVG 1.1//EN" "http://www.w3.org/Graphics/SVG/1.1/DTD/svg11.dtd">
<svg width="100%" height="100%" viewBox="0 0 308 600" version="1.1" xmlns="http://www.w3.org/2000/svg" xmlns:xlink="http://www.w3.org/1999/xlink" xml:space="preserve" xmlns:serif="http://www.serif.com/" style="fill-rule:evenodd;clip-rule:evenodd;stroke-linejoin:round;stroke-miterlimit:2;">
    <g transform="matrix(1,0,0,1,-1262.7,-80.1924)">
        <path d="M1266.11,534.629C1265.77,533.044 1265.45,531.433 1265.18,529.804C1251.58,448.964 1296.02,370.478 1346.41,305.516C1367.68,278.084 1391.96,251.932 1409.88,222.496C1436.03,179.564 1440.16,125.746 1420.32,80.192C1488.64,141.056 1459.45,282.647 1458.01,288.211C1422.78,424.549 1471.29,437.653 1472.38,437.844C1517.78,445.864 1491.03,326.267 1492.53,327.78C1583,418.921 1571.04,504.465 1567.41,529.441C1560.14,579.404 1489.29,680.192 1416.22,680.192C1343.15,680.192 1273.68,584.957 1266.11,534.629ZM1429.92,585.098C1418.77,574.581 1429.45,567.386 1436.25,561.315C1446.52,552.15 1459.65,542.682 1471.54,534.297C1479.46,528.71 1489.32,522.055 1498.52,517.641C1502.96,515.51 1508.59,513.181 1513.59,512.534C1515.58,512.276 1517.61,512.398 1519.61,512.604C1528.39,513.51 1529.61,526.315 1530.52,532.737C1531.17,537.283 1531.4,540.471 1531.3,545.081C1531.23,548.807 1530.77,554.014 1530,557.66C1525.22,580.226 1506.88,598.064 1484.22,602.535C1475.7,604.216 1470.26,603.825 1461.72,602.562C1454.48,601.49 1446.65,597.786 1440.74,593.805C1436.9,591.219 1433.43,588.412 1429.92,585.098ZM1402.77,585.098C1413.92,574.581 1403.24,567.386 1396.44,561.315C1386.17,552.15 1373.04,542.682 1361.15,534.297C1353.23,528.71 1343.37,522.055 1334.17,517.641C1329.73,515.51 1324.1,513.181 1319.1,512.534C1317.11,512.276 1315.08,512.398 1313.08,512.604C1304.3,513.51 1303.07,526.315 1302.17,532.737C1301.52,537.283 1301.29,540.471 1301.38,545.081C1301.46,548.807 1301.91,554.014 1302.69,557.66C1307.46,580.226 1325.81,598.064 1348.46,602.535C1356.99,604.216 1362.43,603.825 1370.96,602.562C1378.21,601.49 1386.04,597.786 1391.95,593.805C1395.79,591.219 1399.26,588.412 1402.77,585.098Z" style="fill:rgb(4,79,161);"/>
    </g>
</svg>
